<svg xmlns="http://www.w3.org/2000/svg" width="1544" height="500" viewBox="0 0 1544 500" role="img" aria-labelledby="title desc">
<title id="title">Custom Hook Block</title><desc id="desc">PHP hooks, editable settings and interactive previews. An illustrative block editor with a refresh control.</desc>
<rect width="1544" height="500" fill="#EDF3FF"/>
<path d="M1164 0h380v500H1030Z" fill="#2563EB"/>
<g font-family="Arial, Helvetica, sans-serif">
<text x="76" y="155" font-size="64" font-weight="700" fill="#153847">Custom Hook</text>
<text x="76" y="230" font-size="64" font-weight="700" fill="#153847">Block</text>
<text x="80" y="296" font-size="27" fill="#526B78">Your PHP. Inside the block editor.</text>
<text x="80" y="358" font-size="23" fill="#153847">Editable settings</text>
<circle cx="280" cy="350" r="3" fill="#2563EB"/>
<text x="300" y="358" font-size="23" fill="#153847">Interactive previews</text>
</g>
<g transform="translate(760 66)">
<rect x="0" y="0" width="708" height="368" rx="16" fill="#FFFFFF" stroke="#D7E5EA" stroke-width="2"/>
<path d="M16 0h676a16 16 0 0 1 16 16v40H0V16A16 16 0 0 1 16 0Z" fill="#153847"/>
<g font-family="Arial, Helvetica, sans-serif">
<text x="24" y="35" font-size="21" fill="#FFFFFF" font-weight="700">&lt;/&gt;</text>
<text x="75" y="35" font-size="18" fill="#FFFFFF">Custom Hook Block</text>
<rect x="480" y="12" width="206" height="32" rx="6" fill="#2563EB"/>
<text x="508" y="35" font-size="17" fill="#FFFFFF">Interact ✓</text>
<path d="M470 56v312" stroke="#D7E5EA" stroke-width="2"/>
<text x="30" y="117" font-size="24" font-weight="700" fill="#153847">Live PHP response</text>
<text x="30" y="160" font-size="19" fill="#526B78">Server time</text>
<text x="30" y="199" font-size="28" fill="#153847">10:42:26 UTC</text>
<rect x="30" y="232" width="214" height="49" rx="5" fill="#2563EB"/>
<text x="58" y="263" font-size="19" fill="#FFFFFF">Refresh server time</text>
<text x="30" y="326" font-size="18" fill="#087E8B">Updated from PHP over Ajax.</text>
<text x="494" y="100" font-size="18" font-weight="700" fill="#153847">Block settings</text>
<text x="494" y="146" font-size="15" fill="#526B78">HEADING</text>
<rect x="493" y="161" width="190" height="42" rx="4" fill="#FFFFFF" stroke="#D7E5EA" stroke-width="2"/>
<text x="505" y="188" font-size="15" fill="#153847">Live PHP response</text>
<text x="494" y="249" font-size="17" fill="#153847">Styles</text>
<circle cx="506" cy="282" r="11" fill="#2563EB"/><circle cx="542" cy="282" r="11" fill="#153847"/><circle cx="578" cy="282" r="11" fill="#EDF3FF" stroke="#D7E5EA"/>
</g>
<path transform="translate(40 -14)" d="M222 254v65l17-17 13 27 17-8-13-26 23-3Z" fill="#153847" stroke="#FFFFFF" stroke-width="4" stroke-linejoin="round"/>
</g></svg>
